<?xml version="1.0" standalone="no"?>
<!DOCTYPE svg PUBLIC "-//W3C//DTD SVG 20010904//EN"
 "http://www.w3.org/TR/2001/REC-SVG-20010904/DTD/svg10.dtd">
<svg version="1.0" xmlns="http://www.w3.org/2000/svg"
 width="1024.000000pt" height="1024.000000pt" viewBox="0 0 1024.000000 1024.000000"
 preserveAspectRatio="xMidYMid meet">

<g transform="translate(0.000000,1024.000000) scale(0.100000,-0.100000)"
fill="#000000" stroke="none">
<path d="M6873 8415 c-239 -67 -433 -330 -433 -586 0 -91 19 -137 93 -230 67
-83 97 -151 97 -219 0 -30 6 -43 26 -59 32 -25 66 -26 194 -6 217 35 290 82
290 185 0 73 -29 109 -150 187 -47 30 -93 65 -103 76 -57 70 -72 148 -38 204
23 37 95 82 145 90 34 5 40 2 89 -49 28 -31 102 -88 164 -127 61 -40 132 -95
158 -122 53 -57 52 -57 85 29 68 179 -37 417 -244 552 -121 78 -261 107 -373
75z"/>
<path d="M6960 8014 c-72 -26 -99 -71 -79 -132 17 -53 77 -130 155 -198 91
-78 88 -75 110 -108 16 -26 20 -57 26 -255 9 -298 35 -440 111 -601 34 -72 62
-101 162 -169 114 -79 225 -129 225 -103 0 4 -40 47 -89 96 -119 118 -136 154
-135 276 1 75 9 128 39 250 49 196 53 305 16 419 -46 141 -165 288 -333 412
-46 33 -92 72 -103 85 -20 25 -74 39 -105 28z"/>
<path d="M5465 7954 c-11 -2 -168 -17 -350 -34 -377 -36 -348 -27 -470 -150
l-69 -70 -4 -67 c-4 -63 -2 -70 23 -93 26 -24 31 -25 148 -22 198 4 274 31
384 138 136 131 251 198 437 255 78 24 103 35 90 40 -19 7 -150 9 -189 3z"/>
<path d="M3781 7910 c-104 -22 -193 -81 -518 -343 -58 -46 -63 -54 -63 -89 0
-66 33 -54 210 78 263 196 347 240 500 263 91 14 263 51 258 57 -2 2 -38 11
-79 19 -92 20 -249 27 -308 15z"/>
<path d="M5586 7885 c-198 -61 -297 -125 -473 -308 -184 -192 -232 -285 -240
-467 -8 -175 39 -315 138 -410 64 -61 125 -93 240 -126 125 -36 158 -54 213
-116 157 -178 228 -444 180 -673 -6 -28 -5 -29 10 -14 21 19 68 180 92 314 26
142 24 357 -4 490 -11 55 -32 154 -46 220 -37 173 -36 289 3 437 48 180 64
296 65 473 1 138 -2 165 -17 188 -9 15 -25 27 -35 26 -9 0 -66 -15 -126 -34z"/>
<path d="M4480 7869 c-204 -7 -274 -21 -526 -103 -169 -55 -195 -69 -209 -114
-10 -33 28 -102 72 -132 l37 -25 337 0 c186 0 341 3 345 7 3 4 1 22 -7 40 -20
49 -17 126 9 178 12 25 45 69 73 98 29 29 50 53 48 55 -2 1 -83 -1 -179 -4z"/>
<path d="M5807 7818 c12 -95 9 -343 -6 -428 -7 -41 -24 -123 -37 -182 -30
-135 -30 -223 1 -368 13 -63 33 -157 44 -209 29 -136 35 -257 18 -381 -8 -58
-13 -106 -12 -108 2 -2 46 53 98 121 122 158 195 225 300 277 144 71 250 85
328 44 42 -21 47 -11 16 33 -50 70 -160 172 -318 295 -96 75 -165 137 -178
158 -21 38 -36 113 -46 233 -9 117 -38 214 -109 365 -35 75 -69 154 -76 175
-19 59 -32 45 -23 -25z"/>
<path d="M5951 7684 c96 -162 134 -279 144 -443 10 -149 21 -165 205 -302 69
-51 167 -134 218 -183 110 -106 109 -106 26 105 -66 166 -69 206 -23 303 81
173 79 314 -8 415 -67 79 -137 90 -226 36 -32 -19 -68 -37 -80 -40 -25 -7 -45
6 -204 128 -48 37 -91 67 -95 67 -4 0 15 -39 43 -86z"/>
<path d="M3508 7578 c-98 -68 -178 -126 -178 -129 -1 -20 438 -14 458 6 3 2
-7 14 -21 25 -45 36 -72 90 -77 158 l-5 63 -177 -123z"/>
<path d="M2810 7646 c0 -32 19 -50 75 -72 38 -14 52 -15 85 -5 22 6 51 22 65
34 l26 22 -83 0 c-66 1 -92 6 -125 23 l-43 22 0 -24z"/>
<path d="M3139 7622 c-168 -88 -272 -148 -276 -159 -3 -7 -2 -28 1 -46 5 -26
18 -41 64 -72 48 -33 67 -40 120 -43 43 -3 76 1 107 12 l43 17 -24 55 c-13 30
-24 72 -24 92 0 42 14 58 102 123 26 19 48 37 48 42 0 4 -24 7 -54 7 -39 0
-67 -7 -107 -28z"/>
<path d="M2721 7353 c-55 -60 -100 -112 -101 -118 -4 -28 27 -6 114 80 70 69
96 102 96 120 0 14 -2 25 -4 25 -3 0 -49 -48 -105 -107z"/>
<path d="M7541 7203 c-55 -368 -53 -430 18 -540 41 -63 162 -171 256 -228 61
-36 232 -108 246 -103 5 2 -20 39 -57 83 -175 210 -232 350 -264 640 -13 119
-24 163 -57 230 -25 50 -92 145 -103 145 -3 0 -20 -102 -39 -227z"/>
<path d="M3243 7400 c-13 -6 -23 -18 -23 -30 0 -16 6 -20 38 -20 40 0 103 27
110 48 4 14 -90 16 -125 2z"/>
<path d="M2779 7314 c-71 -60 -112 -106 -160 -178 -39 -59 -48 -81 -30 -74 15
5 261 277 261 288 0 18 -16 10 -71 -36z"/>
<path d="M2843 7284 c-18 -9 -44 -36 -58 -59 -13 -24 -52 -68 -86 -99 -49 -44
-58 -57 -45 -62 9 -3 22 -2 29 3 6 5 60 48 118 96 93 75 159 118 159 101 0 -2
-34 -45 -76 -95 -75 -90 -87 -116 -41 -86 24 15 159 160 165 176 4 11 -77 41
-108 41 -14 0 -39 -8 -57 -16z"/>
<path d="M4779 7267 c-19 -18 -100 -90 -178 -161 -140 -127 -143 -130 -191
-230 -52 -109 -69 -183 -51 -230 17 -42 130 -184 196 -244 73 -67 163 -119
333 -193 485 -211 581 -299 582 -528 l1 -76 44 48 c67 73 89 154 82 300 -5
125 -27 202 -94 329 -70 135 -164 205 -308 228 -150 26 -257 108 -329 255 -72
145 -92 297 -60 451 8 42 14 77 12 79 -2 2 -19 -11 -39 -28z"/>
<path d="M7071 6977 c-44 -160 -48 -203 -23 -260 37 -84 138 -174 269 -241 29
-14 55 -26 59 -26 3 0 -9 17 -28 38 -61 67 -128 170 -155 234 -14 35 -38 130
-53 211 -15 82 -30 150 -33 153 -2 3 -19 -46 -36 -109z"/>
<path d="M4089 6578 c-372 -387 -359 -372 -359 -406 0 -22 8 -36 28 -50 24
-17 299 -112 539 -186 124 -38 264 -72 398 -96 210 -38 352 -93 553 -214 147
-88 137 -87 152 -25 30 125 -7 237 -105 311 -59 45 -227 132 -348 182 -305
125 -501 264 -608 429 -51 79 -62 118 -56 193 2 35 4 64 3 64 -1 0 -89 -91
-197 -202z"/>
<path d="M6333 6525 c-132 -36 -213 -101 -388 -315 -100 -122 -129 -173 -156
-278 -30 -117 -33 -112 65 -112 105 0 124 13 162 113 41 109 137 297 196 385
28 42 85 110 125 150 41 39 68 72 61 71 -7 0 -37 -7 -65 -14z"/>
<path d="M6424 6436 c-78 -61 -102 -92 -201 -261 -171 -291 -222 -418 -223
-547 0 -79 10 -82 259 -75 215 6 247 12 281 52 10 12 18 84 27 253 7 131 20
290 28 354 21 163 20 219 -6 252 -16 20 -29 26 -59 26 -31 0 -51 -10 -106 -54z"/>
<path d="M3602 6062 c-28 -37 -50 -67 -49 -68 1 -1 54 -20 117 -43 119 -44
263 -119 385 -201 159 -107 182 -113 557 -165 213 -29 277 -44 349 -81 75 -38
127 -96 197 -223 35 -62 67 -109 71 -105 4 5 36 68 70 141 51 107 61 135 52
151 -20 37 -257 173 -404 232 -77 31 -159 51 -537 130 -112 23 -249 60 -347
94 -287 99 -323 115 -369 163 l-42 43 -50 -68z"/>
<path d="M3528 5915 c-13 -14 -53 -56 -90 -93 -77 -77 -98 -114 -105 -186 -18
-181 102 -368 297 -463 47 -23 134 -58 195 -78 123 -41 204 -86 283 -158 29
-26 61 -47 70 -45 9 2 44 44 79 93 134 194 245 263 583 365 58 18 109 35 113
39 11 10 -90 55 -183 81 -41 11 -139 28 -218 36 -253 27 -374 70 -577 204
-121 80 -351 208 -402 224 -17 5 -28 1 -45 -19z"/>
<path d="M3213 5578 c-65 -108 -89 -228 -80 -406 9 -182 42 -266 171 -439 87
-115 189 -215 244 -239 77 -34 284 -10 392 44 63 32 109 87 139 167 19 50 20
59 7 89 -19 46 -77 108 -135 146 -27 17 -100 48 -163 69 -269 90 -399 189
-490 371 -29 57 -33 76 -35 155 -1 49 -6 91 -10 92 -5 2 -23 -20 -40 -49z"/>
<path d="M5994 5491 c-10 -10 -2 -68 27 -208 30 -144 64 -252 95 -303 l15 -25
-7 25 c-3 14 -9 133 -13 265 l-6 240 -53 5 c-29 3 -55 4 -58 1z"/>
<path d="M6234 5493 l-71 -4 -7 -202 c-7 -214 -1 -279 36 -371 28 -72 199
-418 204 -413 3 2 -1 38 -7 78 -15 95 -6 360 15 454 9 39 41 151 72 250 30 99
58 188 60 198 5 16 -5 17 -113 15 -65 -1 -150 -4 -189 -5z"/>
<path d="M6527 5223 c-46 -150 -55 -186 -73 -286 -14 -82 -19 -248 -8 -260 3
-3 19 9 34 26 15 18 56 46 90 62 l62 29 -7 116 c-12 215 -36 401 -55 423 -4 4
-23 -45 -43 -110z"/>
<path d="M4865 5241 c-93 -32 -199 -71 -235 -86 -143 -60 -265 -167 -325 -284
-76 -151 -75 -380 2 -626 28 -89 104 -258 121 -269 7 -4 13 15 17 51 16 135
86 223 236 297 209 102 343 102 480 -2 92 -70 213 -186 266 -254 25 -33 47
-58 49 -56 8 9 -155 608 -228 838 -45 142 -136 370 -164 413 -13 20 -30 37
-37 36 -6 0 -88 -26 -182 -58z"/>
<path d="M7374 4749 c-10 -16 39 -62 181 -169 158 -119 310 -218 675 -440 517
-315 661 -391 745 -394 43 -1 50 2 50 19 0 28 -109 115 -323 258 -492 327
-1051 648 -1251 718 -63 22 -68 23 -77 8z"/>
<path d="M6585 4690 c-28 -11 -66 -33 -85 -50 -34 -29 -35 -30 -15 -46 85 -67
380 -176 566 -208 176 -31 271 -32 389 -3 58 14 122 29 143 33 32 5 37 10 37
34 0 50 -19 55 -126 35 -122 -23 -156 -16 -356 71 -295 128 -370 154 -440 153
-37 0 -84 -8 -113 -19z"/>
<path d="M3349 4519 c54 -95 75 -115 143 -137 97 -32 169 -43 280 -45 86 -2
108 1 135 17 29 18 73 80 63 89 -3 2 -59 -6 -125 -19 -214 -41 -309 -28 -417
59 -28 23 -64 53 -81 66 l-29 24 31 -54z"/>
<path d="M6450 4535 c33 -87 69 -128 160 -182 83 -49 383 -122 530 -129 l95
-4 -110 43 c-60 24 -168 65 -240 91 -168 62 -273 109 -362 163 -39 23 -74 43
-77 43 -3 0 -1 -11 4 -25z"/>
<path d="M8008 4547 c-38 -6 -68 -13 -68 -17 0 -10 414 -230 433 -230 14 0 37
27 37 43 0 3 -12 8 -27 11 -41 10 -130 72 -191 133 -29 29 -62 57 -72 63 -21
11 -17 11 -112 -3z"/>
<path d="M7655 4335 c-8 -124 1 -148 62 -163 21 -6 77 -19 125 -30 47 -11 115
-32 150 -46 46 -19 83 -26 129 -26 56 0 103 12 89 22 -79 59 -121 78 -202 91
-85 15 -216 66 -239 93 -8 10 -8 22 0 45 14 41 2 62 -53 94 -23 14 -45 25 -48
25 -3 0 -9 -47 -13 -105z"/>
<path d="M7450 4338 c-69 -15 -112 -18 -227 -14 -79 2 -143 3 -143 1 0 -7 172
-56 315 -90 83 -19 156 -38 163 -40 25 -9 52 33 52 81 0 90 -13 95 -160 62z"/>
<path d="M4884 4260 c-29 -149 -25 -378 10 -544 50 -241 185 -607 254 -687 44
-52 124 -89 190 -89 35 0 81 14 165 48 64 27 119 51 122 54 3 2 -13 33 -35 68
-47 72 -180 334 -355 702 -118 246 -206 394 -298 503 l-34 39 -19 -94z"/>
<path d="M4763 4301 c-109 -57 -179 -115 -214 -174 -28 -48 -30 -57 -26 -132
5 -104 15 -126 195 -413 82 -130 171 -275 199 -322 51 -84 115 -159 99 -115
-4 11 -25 67 -47 125 -53 138 -103 313 -131 452 -35 177 -31 461 8 601 7 24
-1 22 -83 -22z"/>
<path d="M7817 4320 c-3 -11 -2 -22 2 -24 23 -15 164 -66 169 -61 3 3 3 7 1 9
-11 10 -154 96 -160 96 -4 0 -9 -9 -12 -20z"/>
<path d="M3441 4251 c-15 -96 -14 -364 4 -491 14 -108 57 -286 77 -324 10 -19
16 -11 65 89 67 138 83 211 83 388 0 134 -25 310 -50 357 -8 16 -114 50 -153
50 -10 0 -18 -22 -26 -69z"/>
<path d="M3690 4275 c0 -21 35 -221 56 -318 31 -142 51 -205 105 -316 40 -82
42 -84 54 -60 7 13 23 65 36 114 20 77 23 113 22 250 -1 88 -7 198 -15 245
l-13 85 -122 3 c-68 1 -123 0 -123 -3z"/>
<path d="M5170 4182 c0 -11 52 -141 105 -262 60 -136 278 -578 323 -655 47
-78 51 -72 22 30 -11 39 -32 133 -45 210 -46 254 -84 337 -238 519 -83 100
-167 179 -167 158z"/>
<path d="M7728 4102 c-16 -2 -28 -7 -28 -12 0 -18 22 -65 33 -72 16 -10 336
-9 362 1 14 6 5 9 -35 14 -30 4 -93 19 -140 35 -89 30 -146 40 -192 34z"/>
<path d="M7790 3951 c0 -19 45 -62 66 -63 27 -2 224 55 224 64 0 5 -65 8 -145
8 -84 0 -145 -4 -145 -9z"/>
<path d="M3717 3818 c-4 -13 -7 -37 -7 -53 0 -55 -30 -148 -83 -260 -48 -102
-51 -115 -51 -185 0 -49 7 -98 21 -140 31 -95 60 -240 73 -360 18 -163 43
-165 53 -3 5 66 27 176 73 366 78 318 78 297 -14 518 -47 111 -61 136 -65 117z"/>
<path d="M3567 2990 c-12 -52 -30 -256 -24 -280 3 -14 13 -34 21 -45 15 -20
15 -20 37 2 l22 22 -18 138 c-10 76 -21 149 -25 163 l-7 25 -6 -25z"/>
<path d="M5550 2923 c-80 -30 -149 -59 -153 -63 -4 -4 68 -26 160 -49 174 -44
260 -77 339 -131 25 -18 129 -113 231 -211 102 -99 199 -189 215 -200 l28 -21
25 54 c14 29 25 61 25 71 0 21 -76 148 -182 304 -76 112 -124 155 -230 202
-87 40 -265 101 -291 101 -12 -1 -87 -26 -167 -57z"/>
<path d="M3786 2899 c-3 -17 -6 -73 -6 -124 0 -77 3 -94 16 -99 49 -19 67 74
34 172 -27 83 -35 92 -44 51z"/>
<path d="M5220 2880 c0 -22 99 -155 165 -223 86 -88 172 -148 288 -202 99 -46
581 -255 589 -255 12 0 -392 395 -430 422 -74 51 -163 87 -282 113 -126 28
-236 74 -293 125 -20 17 -37 27 -37 20z"/>
<path d="M3645 2616 c-48 -22 -134 -91 -188 -151 -47 -54 -109 -95 -142 -95
-21 0 -19 -16 5 -40 34 -34 58 -25 146 59 45 44 106 92 136 108 46 24 64 28
141 28 93 0 97 2 75 50 -23 51 -107 70 -173 41z"/>
<path d="M3359 2502 c-24 -16 -53 -39 -63 -50 -18 -21 -18 -22 -1 -22 30 0 99
37 130 70 l29 30 -25 0 c-14 0 -45 -13 -70 -28z"/>
<path d="M3674 2471 c-49 -12 -129 -60 -170 -102 -21 -21 -35 -41 -32 -44 10
-10 293 -16 323 -7 61 17 55 104 -9 143 -32 20 -60 22 -112 10z"/>
<path d="M6593 2399 c-21 -6 -43 -25 -62 -52 -60 -88 -74 -155 -47 -221 20
-47 98 -126 124 -126 40 0 194 96 245 153 54 61 -17 168 -154 232 -59 27 -60
27 -106 14z"/>
<path d="M3430 2282 c0 -20 54 -75 86 -88 36 -15 251 -44 326 -44 26 0 50 5
53 11 8 12 -2 88 -13 107 -7 10 -24 10 -85 0 -60 -9 -104 -9 -200 1 -67 7
-132 15 -144 18 -13 3 -23 1 -23 -5z"/>
<path d="M6894 2104 c-26 -41 -85 -93 -156 -139 l-28 -17 71 -50 c75 -53 99
-89 99 -150 0 -84 101 -223 196 -271 111 -56 306 -96 385 -78 49 11 89 49 89
85 0 34 -120 271 -174 344 -56 76 -141 140 -261 197 -50 24 -111 62 -137 84
-25 23 -48 41 -51 41 -2 0 -17 -21 -33 -46z"/>
</g>
</svg>
