<?xml version="1.0" standalone="no"?>
<!DOCTYPE svg PUBLIC "-//W3C//DTD SVG 20010904//EN"
 "http://www.w3.org/TR/2001/REC-SVG-20010904/DTD/svg10.dtd">
<svg version="1.0" xmlns="http://www.w3.org/2000/svg"
 width="1024.000000pt" height="1024.000000pt" viewBox="0 0 1024.000000 1024.000000"
 preserveAspectRatio="xMidYMid meet">

<g transform="translate(0.000000,1024.000000) scale(0.100000,-0.100000)"
fill="#000000" stroke="none">
<path d="M3295 8523 c-164 -35 -333 -131 -453 -257 -69 -73 -156 -205 -169
-256 -3 -14 -9 -29 -13 -35 -12 -16 -38 -116 -45 -170 -13 -113 -13 -134 -4
-230 19 -197 108 -383 250 -523 148 -147 320 -229 532 -253 400 -45 790 211
918 602 44 133 50 367 13 489 -92 304 -269 493 -569 609 -107 41 -327 53 -460
24z m321 -214 c32 -5 102 -31 154 -57 225 -110 360 -329 360 -584 0 -224 -105
-423 -288 -544 -120 -80 -223 -109 -377 -108 -125 2 -204 24 -322 89 -201 113
-338 371 -320 605 13 167 74 297 197 420 92 93 185 147 297 174 70 17 218 20
299 5z"/>
<path d="M9548 6902 c-19 -4 -113 -57 -1043 -597 -455 -264 -597 -345 -645
-372 -103 -57 -130 -130 -71 -195 26 -29 35 -33 78 -32 43 0 72 14 293 143
135 79 292 170 350 204 58 33 141 81 185 107 44 26 139 81 210 122 72 42 213
124 315 183 102 60 205 119 230 133 126 68 212 126 221 149 5 13 9 39 9 58 0
58 -70 110 -132 97z"/>
<path d="M3987 6728 c-150 -19 -275 -122 -333 -273 -14 -37 -19 -74 -18 -145
0 -84 4 -102 31 -162 43 -92 110 -161 197 -203 66 -31 218 -94 608 -251 87
-34 172 -69 190 -77 18 -8 52 -22 76 -32 24 -11 42 -25 42 -34 0 -27 -153
-223 -251 -322 -158 -158 -344 -259 -478 -259 -159 0 -312 -96 -378 -237 -88
-189 -31 -401 141 -524 69 -50 140 -69 250 -69 553 0 1113 412 1516 1115 79
137 173 333 194 404 52 176 -24 375 -179 467 -51 30 -67 37 -330 144 -163 66
-158 64 -260 108 -38 16 -92 38 -120 48 -27 10 -61 24 -75 31 -14 7 -30 13
-37 13 -7 0 -27 8 -45 18 -18 11 -58 27 -88 37 -30 10 -71 26 -90 36 -19 11
-38 19 -43 19 -4 0 -27 9 -50 19 -127 57 -307 123 -356 129 -31 4 -82 4 -114
0z m248 -273 c61 -26 127 -53 149 -61 21 -8 86 -34 145 -59 99 -42 507 -209
811 -332 190 -77 239 -131 228 -250 -8 -85 -150 -359 -309 -598 -329 -495
-773 -794 -1180 -795 -88 0 -99 2 -141 29 -105 67 -118 222 -26 308 34 32 91
53 142 53 114 0 290 61 413 143 184 123 377 334 529 579 73 119 83 173 36 214
-16 15 -94 53 -173 85 -79 33 -153 63 -164 68 -11 5 -182 75 -380 156 -198 81
-375 158 -394 172 -101 77 -89 252 21 318 74 43 134 37 293 -30z"/>
<path d="M3178 6368 c-38 -41 -155 -194 -190 -249 -9 -14 -86 -70 -172 -125
-295 -187 -421 -267 -501 -317 -156 -97 -470 -301 -502 -325 -45 -33 -102
-124 -125 -194 -16 -54 -18 -98 -18 -428 0 -338 2 -372 20 -429 32 -100 73
-150 189 -229 48 -33 67 -39 158 -52 107 -14 167 -2 257 54 82 52 124 93 158
156 41 76 48 125 48 352 0 117 4 218 8 224 4 6 43 33 87 61 44 27 117 73 163
103 47 29 87 49 91 44 9 -9 -1 -223 -19 -426 -5 -64 -10 -154 -10 -200 -1 -46
-5 -101 -9 -123 -5 -22 -20 -96 -34 -165 -36 -181 -44 -217 -62 -294 -8 -38
-24 -115 -35 -170 -10 -56 -26 -130 -35 -166 -9 -36 -24 -110 -35 -165 -11
-55 -31 -154 -45 -220 -46 -214 -47 -220 -32 -258 36 -86 169 -81 201 8 10 28
88 401 99 475 3 19 12 60 20 90 8 30 20 87 26 125 7 39 17 90 22 115 6 25 20
90 31 145 11 55 26 125 34 155 7 30 24 105 37 165 l22 110 170 5 c143 4 174 8
197 23 37 25 53 77 38 121 -22 66 -34 70 -219 76 l-166 5 1 50 c0 28 6 111 12
185 7 74 12 237 12 362 l0 228 -29 32 c-26 29 -35 33 -80 32 -30 0 -58 -7 -68
-16 -10 -8 -110 -72 -223 -143 -113 -70 -231 -145 -262 -167 -31 -21 -61 -38
-67 -38 -6 0 -22 -17 -36 -37 l-25 -38 0 -255 c0 -226 -3 -260 -19 -295 -67
-148 -275 -151 -349 -5 -23 45 -23 47 -20 400 3 403 1 392 86 456 26 20 164
110 307 201 143 90 303 191 355 224 52 33 184 117 293 186 l198 126 56 85 c31
47 83 117 116 156 33 39 64 82 69 96 14 36 2 84 -29 114 -21 21 -35 26 -75 26
-45 0 -53 -4 -90 -42z"/>
<path d="M9395 5965 c-36 -19 -95 -53 -131 -75 -37 -22 -68 -40 -70 -40 -2 0
-44 -25 -94 -55 -50 -30 -93 -55 -95 -55 -2 0 -56 -31 -120 -70 -64 -38 -117
-70 -119 -70 -2 0 -55 -30 -117 -66 -63 -36 -204 -118 -314 -182 -110 -63
-259 -149 -330 -191 -72 -42 -147 -85 -167 -95 -75 -40 -143 -92 -156 -119
-29 -60 14 -139 81 -150 42 -6 56 1 342 167 358 207 487 282 625 361 69 39
203 117 298 173 96 56 175 102 176 102 3 0 308 178 343 200 28 18 43 52 43 98
-1 40 -11 59 -50 85 -36 25 -71 21 -145 -18z"/>
<path d="M6630 5135 c-274 -36 -597 -156 -830 -310 -108 -72 -258 -224 -298
-305 -75 -150 -55 -304 52 -397 148 -131 465 -160 821 -77 94 21 234 68 331
110 377 161 616 377 656 594 28 149 -61 289 -225 353 -114 44 -315 57 -507 32z
m407 -229 c28 -9 66 -30 83 -46 29 -27 32 -35 27 -71 -23 -169 -382 -412 -759
-513 -158 -42 -253 -56 -393 -56 -105 0 -147 4 -198 20 -73 23 -127 66 -127
102 1 75 112 205 259 303 198 131 424 220 686 270 97 19 352 14 422 -9z"/>
<path d="M4538 3913 c-53 -56 -53 -59 60 -343 223 -559 282 -710 282 -722 0
-13 33 -169 94 -438 8 -36 24 -110 36 -165 11 -55 25 -118 30 -140 5 -22 27
-125 50 -230 52 -245 65 -304 86 -395 22 -96 22 -205 -1 -251 -29 -57 -95
-118 -153 -139 -94 -35 -191 -20 -266 42 -66 54 -86 101 -126 283 -6 28 -19
88 -30 135 -10 47 -26 119 -34 160 -9 41 -22 107 -31 145 -8 39 -22 102 -30
140 -8 39 -21 99 -29 135 -7 36 -24 110 -36 165 -76 352 -93 422 -113 450 -11
16 -93 126 -181 244 -148 196 -196 261 -251 336 -121 166 -163 202 -217 187
-59 -16 -77 -46 -117 -187 -6 -22 -22 -76 -35 -120 -55 -183 -69 -232 -81
-280 -7 -27 -32 -113 -55 -190 -38 -129 -121 -420 -140 -490 -5 -16 -40 -138
-79 -270 -38 -132 -86 -298 -107 -370 -109 -387 -123 -420 -197 -473 -154
-111 -359 -42 -421 141 -20 60 -20 72 4 187 49 230 52 251 39 282 -33 81 -148
93 -191 20 -17 -28 -64 -242 -78 -350 -26 -205 83 -415 261 -500 90 -43 156
-55 264 -50 76 4 102 10 167 40 127 59 238 188 269 313 4 17 19 69 33 117 22
74 55 188 79 273 3 11 17 58 30 105 14 47 37 126 51 175 44 153 58 199 67 230
10 33 65 223 109 380 16 55 54 188 85 295 32 107 61 209 65 225 21 78 36 119
47 122 9 3 363 -461 392 -514 6 -12 18 -55 26 -95 8 -40 21 -104 30 -143 16
-70 20 -90 49 -220 13 -61 56 -264 86 -405 5 -25 16 -74 24 -110 8 -36 22 -99
31 -140 9 -41 27 -124 40 -185 27 -126 55 -208 87 -251 66 -89 105 -121 203
-170 l100 -49 105 0 c86 0 117 4 170 24 36 13 72 30 80 37 9 7 34 26 57 41 87
59 162 181 184 298 12 63 7 167 -10 232 -15 56 -59 250 -69 308 -6 28 -24 115
-42 195 -18 80 -36 165 -40 190 -5 25 -18 84 -29 131 -11 47 -31 139 -45 205
-91 428 -94 439 -132 529 -7 17 -33 84 -59 150 -26 66 -53 134 -60 150 -7 17
-32 80 -55 140 -41 105 -61 156 -80 200 -5 11 -24 61 -44 110 -45 116 -71 145
-135 145 -39 0 -52 -5 -73 -27z"/>
<path d="M2473 2393 c-32 -6 -72 -51 -79 -88 -15 -80 68 -152 139 -121 52 24
68 42 74 84 11 81 -52 140 -134 125z"/>
</g>
</svg>
